<svg xmlns="http://www.w3.org/2000/svg" xmlns:xlink="http://www.w3.org/1999/xlink" viewBox="0 0 22 22">
<path d="M 22 11.419 C 22 9.779 21.083 8.357 19.75 7.682 C 19.911 7.23 19.999 6.742 19.999 6.229 C 19.999 3.934 18.208 2.078 16 2.078 C 15.507 2.078 15.036 2.165 14.6 2.338 C 13.953 0.95 12.582 0 11.001 0 C 9.419 0 8.051 0.952 7.4 2.336 C 6.965 2.164 6.493 2.076 6 2.076 C 3.79 2.076 2.001 3.934 2.001 6.229 C 2.001 6.741 2.088 7.229 2.249 7.682 C 0.917 8.357 0 9.777 0 11.419 C 0 12.971 0.819 14.324 2.034 15.038 C 2.013 15.214 2.001 15.391 2.001 15.571 C 2.001 17.866 3.79 19.724 6 19.724 C 6.493 19.724 6.964 19.635 7.399 19.464 C 8.048 20.849 9.417 21.8 10.999 21.8 C 12.583 21.8 13.952 20.849 14.6 19.464 C 15.035 19.634 15.506 19.722 16 19.722 C 18.21 19.722 19.999 17.864 19.999 15.569 C 19.999 15.389 19.987 15.212 19.965 15.037 C 21.178 14.324 22 12.971 22 11.42 Z M 15.262 7.725 L 10.436 15.116 C 10.274 15.362 10.01 15.495 9.74 15.495 C 9.581 15.495 9.419 15.45 9.277 15.352 L 9.148 15.245 L 6.459 12.499 C 6.133 12.166 6.133 11.626 6.459 11.294 C 6.785 10.962 7.314 10.96 7.639 11.294 L 9.611 13.303 L 13.87 6.777 C 14.127 6.385 14.646 6.282 15.029 6.542 C 15.414 6.803 15.519 7.333 15.262 7.724 Z" fill="#FFA000"></path>
</svg> 